<svg width="32" height="32" viewBox="0 0 32 32" fill="none" xmlns="http://www.w3.org/2000/svg">
<path d="M18.6481 15.6522C18.6481 17.3068 17.3068 18.6481 15.6522 18.6481C13.9975 18.6481 12.6562 17.3068 12.6562 15.6522C12.6562 13.9975 13.9975 12.6562 15.6522 12.6562C17.3068 12.6562 18.6481 13.9975 18.6481 15.6522Z" fill="#8A9380"/>
<path d="M22.6586 10.3515C22.5146 9.96126 22.2848 9.60803 21.9863 9.31808C21.6963 9.01954 21.3433 8.78978 20.9528 8.64577C20.6361 8.52277 20.1604 8.37636 19.2841 8.33648C18.3362 8.29325 18.052 8.28394 15.6522 8.28394C13.2521 8.28394 12.9679 8.29301 12.0202 8.33624C11.144 8.37636 10.668 8.52277 10.3515 8.64577C9.96102 8.78978 9.60778 9.01954 9.31808 9.31808C9.01954 9.60803 8.78978 9.96102 8.64552 10.3515C8.52252 10.6682 8.37612 11.1442 8.33623 12.0205C8.29301 12.9682 8.28369 13.2524 8.28369 15.6524C8.28369 18.0522 8.29301 18.3364 8.33623 19.2844C8.37612 20.1606 8.52252 20.6364 8.64552 20.9531C8.78978 21.3436 9.0193 21.6966 9.31784 21.9865C9.60778 22.2851 9.96078 22.5148 10.3513 22.6588C10.668 22.7821 11.144 22.9285 12.0202 22.9684C12.9679 23.0116 13.2519 23.0207 15.6519 23.0207C18.0522 23.0207 18.3364 23.0116 19.2839 22.9684C20.1602 22.9285 20.6361 22.7821 20.9528 22.6588C21.7367 22.3565 22.3562 21.7369 22.6586 20.9531C22.7816 20.6364 22.928 20.1606 22.9681 19.2844C23.0113 18.3364 23.0204 18.0522 23.0204 15.6524C23.0204 13.2524 23.0113 12.9682 22.9681 12.0205C22.9282 11.1442 22.7818 10.6682 22.6586 10.3515ZM15.6522 20.2674C13.1031 20.2674 11.0367 18.2012 11.0367 15.6522C11.0367 13.1031 13.1031 11.037 15.6522 11.037C18.201 11.037 20.2674 13.1031 20.2674 15.6522C20.2674 18.2012 18.201 20.2674 15.6522 20.2674ZM20.4499 11.9331C19.8542 11.9331 19.3713 11.4501 19.3713 10.8545C19.3713 10.2588 19.8542 9.77593 20.4499 9.77593C21.0455 9.77593 21.5284 10.2588 21.5284 10.8545C21.5282 11.4501 21.0455 11.9331 20.4499 11.9331Z" fill="#8A9380"/>
<path d="M15.6522 0C7.00904 0 0 7.00904 0 15.6522C0 24.2953 7.00904 31.3043 15.6522 31.3043C24.2953 31.3043 31.3043 24.2953 31.3043 15.6522C31.3043 7.00904 24.2953 0 15.6522 0ZM24.5857 19.3577C24.5423 20.3144 24.3901 20.9676 24.168 21.5394C23.7011 22.7467 22.7467 23.7011 21.5394 24.168C20.9679 24.3901 20.3144 24.542 19.3579 24.5857C18.3995 24.6294 18.0933 24.6399 15.6524 24.6399C13.2113 24.6399 12.9054 24.6294 11.9467 24.5857C10.9901 24.542 10.3367 24.3901 9.76517 24.168C9.16523 23.9423 8.62212 23.5886 8.17311 23.1312C7.71598 22.6825 7.36227 22.1391 7.13658 21.5394C6.91446 20.9679 6.76232 20.3144 6.71886 19.3579C6.67467 18.3992 6.6644 18.0931 6.6644 15.6522C6.6644 13.2113 6.67467 12.9051 6.71862 11.9467C6.76208 10.9899 6.91398 10.3367 7.1361 9.76494C7.3618 9.16523 7.71575 8.62188 8.17311 8.17311C8.62188 7.71575 9.16523 7.36203 9.76494 7.13634C10.3367 6.91422 10.9899 6.76232 11.9467 6.71862C12.9051 6.67491 13.2113 6.6644 15.6522 6.6644C18.0931 6.6644 18.3992 6.67491 19.3577 6.71886C20.3144 6.76232 20.9676 6.91422 21.5394 7.1361C22.1391 7.3618 22.6825 7.71575 23.1315 8.17311C23.5886 8.62212 23.9426 9.16523 24.168 9.76494C24.3904 10.3367 24.5423 10.9899 24.586 11.9467C24.6297 12.9051 24.6399 13.2113 24.6399 15.6522C24.6399 18.0931 24.6297 18.3992 24.5857 19.3577Z" fill="#8A9380"/>
</svg>
