<svg width="32" height="32" viewBox="0 0 32 32" fill="none" xmlns="http://www.w3.org/2000/svg">
<path d="M15.7109 12.8379C14.194 12.8379 12.96 14.0719 12.96 15.5889C12.96 17.1058 14.194 18.3398 15.7109 18.3398C17.2279 18.3398 18.4619 17.1058 18.4619 15.5889C18.4619 14.0719 17.2279 12.8379 15.7109 12.8379Z" fill="#8A9380"/>
<path d="M15.5889 0C6.99298 0 0 6.99298 0 15.5889C0 24.1848 6.99298 31.3 15.5889 31.3C24.1848 31.3 31.3 24.1848 31.3 15.5889C31.3 6.99298 24.1848 0 15.5889 0ZM22.1301 20.1738C20.8907 20.1738 19.7977 19.5527 19.1335 18.6091C18.2928 19.5607 17.0777 20.1738 15.7111 20.1738C13.1831 20.1738 11.1262 18.1169 11.1262 15.5889C11.1262 13.0608 13.1831 11.0039 15.7111 11.0039C16.7472 11.0039 17.6934 11.3624 18.4621 11.9443V11.9209C18.4621 11.414 18.8722 11.0039 19.3791 11.0039C19.886 11.0039 20.2961 11.414 20.2961 11.9209C20.2961 13.9603 20.2961 14.4656 20.2961 16.5059C20.2961 17.5169 21.1191 18.3398 22.1301 18.3398C23.1411 18.3398 23.9641 17.5169 23.9641 16.5059C23.9641 10.3687 19.9029 7.33594 15.7111 7.33594C11.1602 7.33594 7.4582 11.038 7.4582 15.5889C7.4582 20.1398 11.1602 23.8418 15.7111 23.8418C17.5451 23.8418 19.2797 23.2544 20.7278 22.1421C21.695 21.4038 22.8026 22.8613 21.8453 23.5964C20.0731 24.9567 17.9526 25.6758 15.7111 25.6758C10.1492 25.6758 5.62422 21.1508 5.62422 15.5889C5.62422 10.0269 10.1492 5.50195 15.7111 5.50195C20.7789 5.50195 25.798 9.23931 25.798 16.5059C25.798 18.5288 24.153 20.1738 22.1301 20.1738Z" fill="#8A9380"/>
</svg>
