<svg width="32" height="32" viewBox="0 0 32 32" fill="none" xmlns="http://www.w3.org/2000/svg">
<g clip-path="url(#clip0)">
<path d="M16 0C7.16374 0 0 7.00769 0 15.6522C0 24.2967 7.16374 31.3043 16 31.3043C24.8363 31.3043 32 24.2967 32 15.6522C32 7.00769 24.8363 0 16 0ZM24.1161 17.345C24.8618 18.0576 25.6507 18.7282 26.3202 19.5144C26.6168 19.8622 26.8964 20.2218 27.1092 20.6263C27.413 21.2031 27.1386 21.8355 26.6109 21.8698L23.333 21.8692C22.4864 21.9377 21.8127 21.6037 21.2447 21.0375C20.7913 20.5863 20.3707 20.1043 19.934 19.6377C19.7555 19.4462 19.5676 19.2659 19.3437 19.124C18.8969 18.8396 18.5086 18.9267 18.2526 19.3834C17.9917 19.8481 17.9321 20.363 17.9072 20.8802C17.8715 21.6363 17.6385 21.8339 16.8629 21.8695C15.2058 21.9454 13.6335 21.6994 12.1721 20.8822C10.8829 20.1613 9.88514 19.1439 9.01565 17.9919C7.32252 15.7463 6.02582 13.2817 4.86073 10.7463C4.59851 10.1753 4.79034 9.86976 5.43427 9.85791C6.5041 9.83773 7.57393 9.84029 8.64376 9.85695C9.07916 9.86367 9.36724 10.1074 9.53453 10.5093C10.1127 11.9008 10.8214 13.2247 11.7095 14.4525C11.9462 14.7795 12.1878 15.1055 12.5319 15.3364C12.9116 15.5913 13.201 15.5071 13.3801 15.0924C13.4947 14.8288 13.5441 14.547 13.569 14.2645C13.6541 13.2971 13.6642 12.3299 13.5169 11.3663C13.4253 10.7633 13.0786 10.3738 12.4641 10.2598C12.1512 10.2019 12.197 10.0885 12.3492 9.91363C12.6134 9.61131 12.8609 9.42429 13.3555 9.42429L17.059 9.42365C17.6427 9.53574 17.7737 9.79194 17.8529 10.3671L17.8562 14.3933C17.8493 14.6158 17.9704 15.2756 18.379 15.4213C18.7063 15.527 18.9224 15.2701 19.1182 15.0674C20.0063 14.1454 20.6391 13.0572 21.2058 11.9309C21.4559 11.4342 21.6716 10.9202 21.8811 10.4052C22.0369 10.0244 22.2792 9.83709 22.7185 9.8435L26.2848 9.84766C26.3899 9.84766 26.4967 9.84862 26.6008 9.86623C27.2018 9.96679 27.3665 10.2198 27.1805 10.7934C26.8879 11.6945 26.3192 12.4452 25.7634 13.1978C25.1675 14.0035 24.5321 14.7811 23.9422 15.5904C23.4001 16.3301 23.443 16.7026 24.1161 17.345Z" fill="#8A9380"/>
</g>
<defs>
<clipPath id="clip0">
<rect width="32" height="31.3043" fill="white"/>
</clipPath>
</defs>
</svg>
