<svg width="32" height="32" viewBox="0 0 32 32" fill="none" xmlns="http://www.w3.org/2000/svg">
<path d="M31.3043 15.6522C31.3043 7.00679 24.2976 0 15.6522 0C7.00679 0 0 7.00679 0 15.6522C0 24.2976 7.00679 31.3043 15.6522 31.3043C15.7439 31.3043 15.8356 31.3043 15.9273 31.2982V19.1189H12.5645V15.1997H15.9273V12.3139C15.9273 8.96943 17.9694 7.14742 20.9531 7.14742C22.3838 7.14742 23.6128 7.25136 23.9674 7.30027V10.7976H21.913C20.2928 10.7976 19.9749 11.5679 19.9749 12.699V15.1936H23.8573L23.3499 19.1128H19.9749V30.699C26.517 28.822 31.3043 22.7996 31.3043 15.6522Z" fill="#8A9380"/>
</svg>
